<svg width="32" height="32" viewBox="0 0 32 32" fill="none" xmlns="http://www.w3.org/2000/svg">
<path fill-rule="evenodd" clip-rule="evenodd" d="M16.0001 29.3333C8.63628 29.3333 2.66675 23.3638 2.66675 16C2.66675 8.63616 8.63628 2.66663 16.0001 2.66663C23.3639 2.66663 29.3334 8.63616 29.3334 16C29.3334 18.3693 28.7154 20.5943 27.6318 22.5226C27.5798 22.6152 27.5651 22.7242 27.5925 22.8268L29.1426 28.62C29.2052 28.8541 29.2365 28.9712 29.2055 29.052C29.1784 29.1225 29.1227 29.1783 29.0521 29.2053C28.9713 29.2364 28.8542 29.2051 28.6201 29.1424L22.8269 27.5924C22.7244 27.5649 22.6153 27.5796 22.5227 27.6316C20.5945 28.7153 18.3694 29.3333 16.0001 29.3333ZM10.6667 12.6666C10.1145 12.6666 9.66675 13.1143 9.66675 13.6666C9.66675 14.2189 10.1145 14.6666 10.6667 14.6666H21.3334C21.8857 14.6666 22.3334 14.2189 22.3334 13.6666C22.3334 13.1143 21.8857 12.6666 21.3334 12.6666H10.6667ZM10.6667 17.3333C10.1145 17.3333 9.66675 17.781 9.66675 18.3333C9.66675 18.8856 10.1145 19.3333 10.6667 19.3333H21.3334C21.8857 19.3333 22.3334 18.8856 22.3334 18.3333C22.3334 17.781 21.8857 17.3333 21.3334 17.3333H10.6667Z" fill="#C93640"/>
</svg>
