<svg width="18" height="15" viewBox="0 0 18 15" fill="none" xmlns="http://www.w3.org/2000/svg">
<path fill-rule="evenodd" clip-rule="evenodd" d="M9.88426 1.25C8.19652 1.25 6.71563 2.05816 5.82868 3.28013C6.0888 3.36596 6.37825 3.50396 6.61339 3.72969C6.8624 3.96874 6.87047 4.36438 6.63142 4.61339C6.39238 4.8624 5.99673 4.87047 5.74772 4.63142C5.67436 4.561 5.53013 4.48679 5.32246 4.4339C5.12373 4.38329 4.9324 4.36876 4.8344 4.36971L4.81119 4.36994L4.78804 4.36844C4.71283 4.36359 4.63686 4.36111 4.56019 4.36111C2.70773 4.36111 1.25 5.79646 1.25 7.51389C1.25 8.82774 2.09816 9.97198 3.3305 10.4421C3.65301 10.5651 3.81472 10.9263 3.6917 11.2488C3.56868 11.5713 3.2075 11.733 2.88499 11.61C1.20839 10.9704 0 9.38791 0 7.51389C0 5.09375 2.00706 3.16713 4.45303 3.11231C5.50408 1.25135 7.54834 0 9.88426 0C13.182 0 15.9138 2.5031 16.0588 5.69157C17.1521 6.2318 17.9167 7.3337 17.9167 8.625C17.9167 9.94388 17.1177 11.0668 15.9877 11.5927C15.7304 11.7124 15.4553 11.8017 15.1676 11.8559C14.8284 11.9198 14.5016 11.6966 14.4377 11.3574C14.3738 11.0182 14.597 10.6914 14.9362 10.6275C15.1208 10.5927 15.2965 10.5356 15.4603 10.4594C16.186 10.1217 16.6667 9.41882 16.6667 8.625C16.6667 7.99399 16.3621 7.4194 15.8729 7.04126C15.7778 7.27561 15.6322 7.5289 15.4097 7.74253C15.1607 7.98158 14.765 7.97351 14.526 7.7245C14.2869 7.47549 14.295 7.07985 14.544 6.8408C14.6282 6.76 14.7 6.63216 14.7499 6.47269C14.7996 6.31405 14.8128 6.17099 14.8126 6.11118L14.8126 6.10121L14.8129 6.09124C14.8142 6.04711 14.8148 6.0028 14.8148 5.95833C14.8148 3.38179 12.6316 1.25 9.88426 1.25ZM10.4245 8.52603C10.7246 8.69656 10.8297 9.07808 10.6592 9.3782L7.88137 14.2671C7.71085 14.5672 7.32932 14.6723 7.02921 14.5017C6.72909 14.3312 6.62403 13.9497 6.79455 13.6496L9.57233 8.76069C9.74285 8.46057 10.1244 8.35551 10.4245 8.52603ZM6.97477 9.42833C7.26748 9.61128 7.35646 9.99687 7.17352 10.2896L5.78463 12.5118C5.60168 12.8045 5.21609 12.8935 4.92338 12.7106C4.63067 12.5276 4.54169 12.142 4.72463 11.8493L6.11352 9.62708C6.29646 9.33437 6.68206 9.24539 6.97477 9.42833ZM12.9933 9.42833C13.286 9.61128 13.375 9.99687 13.192 10.2896L11.8031 12.5118C11.6202 12.8045 11.2346 12.8935 10.9419 12.7106C10.6492 12.5276 10.5602 12.142 10.7431 11.8493L12.132 9.62708C12.315 9.33437 12.7006 9.24539 12.9933 9.42833Z" fill="white"/>
</svg>
