<svg width="24" height="24" viewBox="0 0 24 24" fill="none" xmlns="http://www.w3.org/2000/svg">
<path d="M9.01809 9.01809L12 12M14.0362 4L11.5271 6.50904L9.01809 9.01809L6.52713 11.509M6.52713 11.509L4.03618 14L2.30879 15.7274C1.89707 16.1391 1.89707 16.8066 2.30879 17.2183L6.78165 21.6912C7.19337 22.1029 7.86089 22.1029 8.27261 21.6912L21.6912 8.27261C22.1029 7.86089 22.1029 7.19337 21.6912 6.78165L17.2183 2.30879C16.8066 1.89707 16.1391 1.89707 15.7274 2.30879L14.0362 4M14.0362 4L17 6.96382M4.03618 14L7 16.9638M6.52713 11.509L8.27261 13.2545M11.5271 6.50904L13.2907 8.27261" stroke="black" stroke-width="1.5" stroke-linecap="round"/>
</svg>
