<svg width="41" height="41" viewBox="0 0 41 41" fill="none" xmlns="http://www.w3.org/2000/svg">
<g clip-path="url(#clip0_1103_1035)">
<path d="M36.7763 14.5481C36.4259 14.1079 35.9805 13.7527 35.4734 13.509C34.9664 13.2652 34.4107 13.1393 33.8481 13.1406H29.725V10.6406C29.725 9.95125 29.1644 9.39062 28.475 9.39062H7.22501C6.53563 9.39062 5.97501 9.95125 5.97501 10.6406V13.1406H2.85001C2.68425 13.1406 2.52527 13.2065 2.40806 13.3237C2.29085 13.4409 2.22501 13.5999 2.22501 13.7656C2.22501 13.9314 2.29085 14.0904 2.40806 14.2076C2.52527 14.3248 2.68425 14.3906 2.85001 14.3906H5.97501V21.8906H2.22501C2.05925 21.8906 1.90027 21.9565 1.78306 22.0737C1.66585 22.1909 1.60001 22.3499 1.60001 22.5156C1.60001 22.6814 1.66585 22.8404 1.78306 22.9576C1.90027 23.0748 2.05925 23.1406 2.22501 23.1406H5.97501V26.8906C5.97501 27.58 6.53563 28.1406 7.22501 28.1406H9.16313C9.45376 29.565 10.7156 30.6406 12.225 30.6406C13.7344 30.6406 14.9963 29.565 15.2869 28.1406H31.6631C31.9538 29.565 33.2156 30.6406 34.725 30.6406C36.2344 30.6406 37.4963 29.565 37.7869 28.1406H39.1C40.1338 28.1406 40.975 27.2994 40.975 26.2656V21.1119C40.9739 20.2606 40.6842 19.4348 40.1531 18.7694L36.7763 14.5481ZM12.225 29.3906C11.1913 29.3906 10.35 28.5494 10.35 27.5156C10.35 26.4819 11.1913 25.6406 12.225 25.6406C13.2588 25.6406 14.1 26.4819 14.1 27.5156C14.1 28.5494 13.2588 29.3906 12.225 29.3906ZM34.725 29.3906C33.6913 29.3906 32.85 28.5494 32.85 27.5156C32.85 26.4819 33.6913 25.6406 34.725 25.6406C35.7588 25.6406 36.6 26.4819 36.6 27.5156C36.6 28.5494 35.7588 29.3906 34.725 29.3906ZM39.725 26.2656C39.725 26.61 39.4444 26.8906 39.1 26.8906H37.7869C37.4963 25.4662 36.2344 24.3906 34.725 24.3906C33.2156 24.3906 31.9538 25.4662 31.6631 26.8906H29.725V18.7656C29.725 18.5999 29.6592 18.4409 29.5419 18.3237C29.4247 18.2065 29.2658 18.1406 29.1 18.1406C28.9342 18.1406 28.7753 18.2065 28.6581 18.3237C28.5409 18.4409 28.475 18.5999 28.475 18.7656V26.8906H15.2869C14.9963 25.4662 13.7344 24.3906 12.225 24.3906C10.7156 24.3906 9.45376 25.4662 9.16313 26.8906H7.22501V23.1406H9.10001C9.26577 23.1406 9.42474 23.0748 9.54195 22.9576C9.65916 22.8404 9.72501 22.6814 9.72501 22.5156C9.72501 22.3499 9.65916 22.1909 9.54195 22.0737C9.42474 21.9565 9.26577 21.8906 9.10001 21.8906H7.22501V14.3906H15.975C16.1408 14.3906 16.2997 14.3248 16.4169 14.2076C16.5342 14.0904 16.6 13.9314 16.6 13.7656C16.6 13.5999 16.5342 13.4409 16.4169 13.3237C16.2997 13.2065 16.1408 13.1406 15.975 13.1406H7.22501V10.6406H28.475V16.8906C28.475 17.0564 28.5409 17.2154 28.6581 17.3326C28.7753 17.4498 28.9342 17.5156 29.1 17.5156C29.2658 17.5156 29.4247 17.4498 29.5419 17.3326C29.6592 17.2154 29.725 17.0564 29.725 16.8906V14.3906H33.8481C34.6119 14.3906 35.3231 14.7325 35.8006 15.3287L39.1775 19.55C39.5312 19.9938 39.7241 20.5444 39.725 21.1119V26.2656Z" fill="black"/>
<path d="M14.725 17.5156H9.10001C8.93425 17.5156 8.77527 17.5815 8.65806 17.6987C8.54085 17.8159 8.47501 17.9749 8.47501 18.1406C8.47501 18.3064 8.54085 18.4654 8.65806 18.5826C8.77527 18.6998 8.93425 18.7656 9.10001 18.7656H14.725C14.8908 18.7656 15.0497 18.6998 15.1669 18.5826C15.2842 18.4654 15.35 18.3064 15.35 18.1406C15.35 17.9749 15.2842 17.8159 15.1669 17.6987C15.0497 17.5815 14.8908 17.5156 14.725 17.5156ZM1.60001 19.3906H3.47501C3.64077 19.3906 3.79974 19.3248 3.91695 19.2076C4.03416 19.0904 4.10001 18.9314 4.10001 18.7656C4.10001 18.5999 4.03416 18.4409 3.91695 18.3237C3.79974 18.2065 3.64077 18.1406 3.47501 18.1406H1.60001C1.43425 18.1406 1.27527 18.2065 1.15806 18.3237C1.04085 18.4409 0.975006 18.5999 0.975006 18.7656C0.975006 18.9314 1.04085 19.0904 1.15806 19.2076C1.27527 19.3248 1.43425 19.3906 1.60001 19.3906ZM34.7669 16.09C34.6499 15.9491 34.5032 15.8358 34.3374 15.7581C34.1716 15.6804 33.9906 15.6403 33.8075 15.6406H32.2244C31.8932 15.6411 31.5757 15.7729 31.3415 16.0071C31.1073 16.2413 30.9755 16.5588 30.975 16.89V19.3913C30.975 20.08 31.5356 20.6406 32.2244 20.6406H35.8919C36.3819 20.6406 36.8156 20.365 37.0238 19.9213C37.2319 19.4775 37.1656 18.9681 36.8519 18.5919L34.7669 16.09ZM32.225 19.3913L32.2244 16.8906H33.8075L35.8969 19.3906L32.225 19.3913Z" fill="black"/>
</g>
<defs>
<clipPath id="clip0_1103_1035">
<rect width="40" height="40" fill="white" transform="translate(0.975006 0.015625)"/>
</clipPath>
</defs>
</svg>
