<svg width="15" height="20" viewBox="0 0 15 20" fill="none" xmlns="http://www.w3.org/2000/svg">
<path fill-rule="evenodd" clip-rule="evenodd" d="M7.25 0C7.66421 0 8 0.335786 8 0.75V17.0163L13.2158 11.7236C13.5065 11.4285 13.9814 11.4251 14.2764 11.7158C14.5715 12.0065 14.5749 12.4814 14.2842 12.7764L7.89669 19.2581L7.86471 19.2842C7.67374 19.4395 7.44861 19.5 7.25 19.5C7.05139 19.5 6.82626 19.4395 6.63529 19.2842L6.60331 19.2581L0.215803 12.7764C-0.074939 12.4814 -0.0714633 12.0065 0.223566 11.7158C0.518595 11.4251 0.993456 11.4285 1.2842 11.7236L6.5 17.0163V0.75C6.5 0.335786 6.83579 0 7.25 0Z" fill="white"/>
</svg>
