<svg width="18" height="17" viewBox="0 0 18 17" fill="none" xmlns="http://www.w3.org/2000/svg">
<path d="M14.8135 1.11005C14.2553 0.221699 13.1632 -0.154058 12.2541 0.0576802C11.7007 0.18657 11.2424 0.542993 10.9771 0.994093C10.8615 1.19064 10.779 1.41288 10.7444 1.64665C10.6989 1.95398 10.7362 2.28124 10.8899 2.59629C11.2072 3.24663 11.7871 3.43207 12.2233 3.45127C12.5681 3.46646 12.86 3.19921 12.8752 2.85437C12.8904 2.50953 12.6231 2.21767 12.2783 2.20248C12.2007 2.19907 12.1474 2.18328 12.113 2.16439C12.0865 2.14985 12.0498 2.12291 12.0133 2.04817C11.9587 1.93626 11.9593 1.7897 12.0546 1.62777C12.1521 1.462 12.3285 1.3238 12.5376 1.2751C12.9615 1.17636 13.4988 1.36726 13.7551 1.77508C13.9191 2.03621 13.9228 2.50205 13.7336 2.8546C13.4458 3.39081 13.1046 3.75122 12.6856 3.99472C12.2599 4.24213 11.7101 4.3942 10.968 4.44096C10.5525 4.46714 9.99736 4.3342 9.49627 4.16275C9.25613 4.08059 9.04678 3.99612 8.89779 3.93229C8.82354 3.90048 8.76492 3.87407 8.72567 3.856C8.70606 3.84698 8.69134 3.84006 8.68197 3.83562L8.67201 3.83087L8.67008 3.82994C8.35982 3.6791 7.98598 3.80819 7.83491 4.1184C7.68378 4.42873 7.81304 4.80292 8.12338 4.95404L8.12416 4.95443L8.1257 4.95517L8.13044 4.95746L8.1464 4.96507C8.15986 4.97146 8.17891 4.9804 8.20304 4.9915C8.25129 5.01371 8.32008 5.04467 8.40554 5.08128C8.57597 5.1543 8.81518 5.25086 9.09162 5.34544C9.62368 5.52748 10.3737 5.73088 11.0466 5.68849C11.9147 5.63379 12.6701 5.44951 13.3137 5.07547C13.964 4.69752 14.4562 4.15138 14.835 3.44571C15.1904 2.78352 15.2646 1.82802 14.8135 1.11005Z" fill="white"/>
<path d="M7.22472 7.56654C5.95052 7.08556 4.66213 6.65477 3.20471 6.73846C2.51697 6.77795 1.9974 7.04146 1.64611 7.29791C1.47016 7.42635 1.33885 7.55143 1.25372 7.64158C1.21132 7.68647 1.18092 7.72213 1.16268 7.74441C1.15358 7.75553 1.14756 7.76325 1.14465 7.76704L1.14294 7.76928C0.94002 8.04621 0.551266 8.10774 0.272644 7.90628C-0.00707544 7.70403 -0.0698771 7.31332 0.132373 7.0336L0.133046 7.03267L0.133804 7.03163L0.135568 7.02921L0.1401 7.02308L0.153179 7.0058C0.16368 6.99213 0.17777 6.9742 0.195445 6.95261C0.230763 6.90946 0.280595 6.85145 0.344918 6.78334C0.473229 6.64747 0.661293 6.4692 0.909097 6.2883C1.40532 5.92606 2.15077 5.54692 3.13305 5.49051C4.8762 5.39042 6.38134 5.9121 7.66615 6.39708C7.76745 6.43532 7.86687 6.47305 7.96454 6.51013C9.1582 6.96322 10.0898 7.31683 10.9826 7.26556C11.9501 7.21 12.5756 6.93174 12.9467 6.69167C13.1343 6.57034 13.2615 6.4557 13.3375 6.37787C13.3756 6.33892 13.4008 6.30921 13.4142 6.29254L13.4191 6.28641L13.4252 6.2785C13.6203 5.99873 14.0046 5.92675 14.288 6.11852C14.5739 6.31197 14.6488 6.70054 14.4554 6.98642L14.4545 6.98774L14.4535 6.98917L14.4513 6.99235L14.446 6.99993C14.4421 7.00552 14.4373 7.01219 14.4316 7.01986C14.4203 7.03518 14.4056 7.05453 14.3872 7.07733C14.3504 7.12292 14.299 7.18242 14.2317 7.25131C14.0971 7.38915 13.8986 7.56466 13.6257 7.74121C13.0758 8.09689 12.2416 8.44532 11.0542 8.5135C9.8788 8.581 8.6897 8.12624 7.56904 7.69765C7.45351 7.65347 7.3387 7.60956 7.22472 7.56654Z" fill="white"/>
<path d="M3.73349 8.54003C3.74114 8.19494 4.02709 7.92139 4.37219 7.92904C4.77007 7.93786 5.23357 7.98431 5.72446 8.10564C6.69937 8.34659 7.57712 8.8536 8.41319 9.33653C8.61359 9.45228 8.8116 9.56666 9.00798 9.67565C10.0556 10.2571 11.1816 10.7734 12.6988 10.8904C13.69 10.9669 14.7114 10.5374 15.5334 10.0295C15.9354 9.78109 16.2696 9.52642 16.5029 9.33406C16.6191 9.23818 16.7094 9.15857 16.7694 9.10404C16.7994 9.0768 16.8218 9.05589 16.836 9.04242L16.8512 9.02794L16.8537 9.02551C17.1 8.78385 17.4957 8.78726 17.7375 9.03345C17.9794 9.27971 17.9759 9.67542 17.7296 9.9173L17.7282 9.91868L17.7259 9.92086L17.719 9.92762L17.6952 9.95029C17.6751 9.96932 17.6465 9.99604 17.6099 10.0293C17.5367 10.0958 17.4314 10.1886 17.2981 10.2985C17.0324 10.5176 16.6517 10.8079 16.1904 11.0929C15.2857 11.6519 13.9866 12.2435 12.6027 12.1367C10.827 11.9998 9.51734 11.388 8.40137 10.7686C8.15974 10.6345 7.93201 10.5035 7.71387 10.378C6.89566 9.90729 6.21122 9.51356 5.42454 9.31912C5.03834 9.22367 4.66811 9.18591 4.34448 9.17873C3.99938 9.17108 3.72583 8.88512 3.73349 8.54003Z" fill="white"/>
<path d="M2.33182 8.82804C2.49438 9.13254 2.37931 9.51117 2.07481 9.67373C1.54277 9.95776 1.37128 10.1149 1.10388 10.4337C0.882054 10.6982 0.487839 10.7328 0.223372 10.5109C-0.041096 10.2891 -0.0756677 9.89491 0.146154 9.63044C0.521876 9.18248 0.820927 8.92615 1.48613 8.57103C1.79063 8.40847 2.16926 8.52353 2.33182 8.82804Z" fill="white"/>
<path fill-rule="evenodd" clip-rule="evenodd" d="M7.00526 11.2955C7.31559 11.4466 7.44485 11.8208 7.29372 12.1311C7.14266 12.4413 6.76882 12.5704 6.45857 12.4196L6.45663 12.4187L6.44667 12.4139C6.4373 12.4095 6.42257 12.4025 6.40297 12.3935C6.36372 12.3755 6.30509 12.349 6.23084 12.3172C6.08185 12.2534 5.8725 12.1689 5.63236 12.0868C5.13127 11.9153 4.57609 11.7824 4.16064 11.8086C3.41852 11.8553 2.86872 12.0074 2.44302 12.2548C2.02402 12.4983 1.68285 12.8587 1.39507 13.3949C1.20586 13.7475 1.2095 14.2133 1.37357 14.4744C1.62981 14.8823 2.16711 15.0732 2.59102 14.9744C2.80012 14.9257 2.97656 14.7875 3.07406 14.6217C3.16929 14.4598 3.1699 14.3133 3.11529 14.2013C3.08699 14.1433 3.05933 14.116 3.04054 14.1014C3.02023 14.0856 2.99304 14.0716 2.9535 14.0614C2.61933 13.9749 2.41853 13.6339 2.50501 13.2997C2.59148 12.9656 2.93248 12.7648 3.26665 12.8512C3.63898 12.9476 4.01217 13.1889 4.23871 13.6532C4.50934 14.2079 4.41909 14.8005 4.15153 15.2554C3.88623 15.7065 3.42795 16.0629 2.87457 16.1918C1.96547 16.4036 0.873327 16.0278 0.315158 15.1395C-0.135955 14.4215 -0.0617244 13.466 0.293665 12.8038C0.672388 12.0981 1.16461 11.552 1.81493 11.1741C2.45853 10.8 3.21397 10.6157 4.08203 10.561C4.75489 10.5186 5.50495 10.722 6.03701 10.9041C6.31346 10.9987 6.55267 11.0952 6.72309 11.1682C6.80855 11.2048 6.87734 11.2358 6.92559 11.258C6.92861 11.2594 6.93154 11.2608 6.9344 11.2621C6.9544 11.2713 6.97045 11.2789 6.98223 11.2844L6.99819 11.2921L7.00293 11.2943L7.00526 11.2955Z" fill="white"/>
</svg>
