<svg width="18" height="18" viewBox="0 0 18 18" fill="none" xmlns="http://www.w3.org/2000/svg">
<path fill-rule="evenodd" clip-rule="evenodd" d="M8.95833 0C9.30351 0 9.58333 0.279822 9.58333 0.625V2.70833C9.58333 3.05351 9.30351 3.33333 8.95833 3.33333C8.61316 3.33333 8.33333 3.05351 8.33333 2.70833V0.625C8.33333 0.279822 8.61316 0 8.95833 0ZM2.96084 2.96084C3.20491 2.71676 3.60064 2.71676 3.84472 2.96084L4.88298 3.9991C5.12706 4.24317 5.12706 4.6389 4.88298 4.88298C4.6389 5.12706 4.24317 5.12706 3.9991 4.88298L2.96084 3.84472C2.71676 3.60064 2.71676 3.20491 2.96084 2.96084ZM14.9558 2.96084C15.1999 3.20491 15.1999 3.60064 14.9558 3.84472L13.9176 4.88298C13.6735 5.12706 13.2778 5.12706 13.0337 4.88298C12.7896 4.6389 12.7896 4.24317 13.0337 3.9991L14.0719 2.96084C14.316 2.71676 14.7118 2.71676 14.9558 2.96084ZM8.95833 5.87963C7.25801 5.87963 5.87963 7.25801 5.87963 8.95833C5.87963 10.6587 7.25801 12.037 8.95833 12.037C10.6587 12.037 12.037 10.6587 12.037 8.95833C12.037 7.25801 10.6587 5.87963 8.95833 5.87963ZM4.62963 8.95833C4.62963 6.56766 6.56766 4.62963 8.95833 4.62963C11.349 4.62963 13.287 6.56766 13.287 8.95833C13.287 11.349 11.349 13.287 8.95833 13.287C6.56766 13.287 4.62963 11.349 4.62963 8.95833ZM0 8.95833C0 8.61316 0.279822 8.33333 0.625 8.33333H2.70833C3.05351 8.33333 3.33333 8.61316 3.33333 8.95833C3.33333 9.30351 3.05351 9.58333 2.70833 9.58333H0.625C0.279822 9.58333 0 9.30351 0 8.95833ZM14.5833 8.95833C14.5833 8.61316 14.8632 8.33333 15.2083 8.33333H17.2917C17.6368 8.33333 17.9167 8.61316 17.9167 8.95833C17.9167 9.30351 17.6368 9.58333 17.2917 9.58333H15.2083C14.8632 9.58333 14.5833 9.30351 14.5833 8.95833ZM4.88298 13.0337C5.12706 13.2778 5.12706 13.6735 4.88298 13.9176L3.84472 14.9558C3.60064 15.1999 3.20491 15.1999 2.96084 14.9558C2.71676 14.7118 2.71676 14.316 2.96084 14.0719L3.9991 13.0337C4.24317 12.7896 4.6389 12.7896 4.88298 13.0337ZM13.0337 13.0337C13.2778 12.7896 13.6735 12.7896 13.9176 13.0337L14.9558 14.0719C15.1999 14.316 15.1999 14.7118 14.9558 14.9558C14.7118 15.1999 14.316 15.1999 14.0719 14.9558L13.0337 13.9176C12.7896 13.6735 12.7896 13.2778 13.0337 13.0337ZM8.95833 14.5833C9.30351 14.5833 9.58333 14.8632 9.58333 15.2083V17.2917C9.58333 17.6368 9.30351 17.9167 8.95833 17.9167C8.61316 17.9167 8.33333 17.6368 8.33333 17.2917V15.2083C8.33333 14.8632 8.61316 14.5833 8.95833 14.5833Z" fill="white"/>
</svg>
