<svg width="18" height="18" viewBox="0 0 18 18" fill="none" xmlns="http://www.w3.org/2000/svg">
<path fill-rule="evenodd" clip-rule="evenodd" d="M8.95833 0C9.30351 0 9.58333 0.279822 9.58333 0.625V1.77199L10.0005 1.49386C10.2877 1.30239 10.6758 1.38 10.8673 1.6672C11.0587 1.95441 10.9811 2.34245 10.6939 2.53392L9.58333 3.2743V7.44939L12.5356 4.49717L12.2738 3.18835C12.2061 2.84987 12.4256 2.52061 12.7641 2.45291C13.1026 2.38522 13.4318 2.60473 13.4995 2.9432L13.5978 3.43488L14.4089 2.62383C14.653 2.37976 15.0487 2.37976 15.2928 2.62383C15.5369 2.86791 15.5369 3.26364 15.2928 3.50772L14.4817 4.31876L14.9734 4.4171C15.3119 4.48479 15.5314 4.81406 15.4637 5.15253C15.396 5.49101 15.0667 5.71052 14.7283 5.64282L13.4194 5.38106L10.4672 8.33329L14.6424 8.33333L15.3827 7.22276C15.5742 6.93555 15.9623 6.85794 16.2495 7.04941C16.5367 7.24088 16.6143 7.62893 16.4228 7.91613L16.1447 8.33333H17.2917C17.6368 8.33333 17.9167 8.61316 17.9167 8.95833C17.9167 9.30351 17.6368 9.58333 17.2917 9.58333H16.1447L16.4228 10.0005C16.6143 10.2877 16.5367 10.6758 16.2495 10.8673C15.9623 11.0587 15.5742 10.9811 15.3827 10.6939L14.6424 9.58333L10.4672 9.58329L13.4195 12.5356L14.7283 12.2738C15.0668 12.2061 15.3961 12.4257 15.4638 12.7641C15.5314 13.1026 15.3119 13.4319 14.9735 13.4996L14.4818 13.5979L15.2928 14.4089C15.5369 14.653 15.5369 15.0488 15.2928 15.2928C15.0488 15.5369 14.653 15.5369 14.4089 15.2928L13.5979 14.4818L13.4996 14.9735C13.4319 15.3119 13.1026 15.5314 12.7641 15.4638C12.4257 15.3961 12.2061 15.0668 12.2738 14.7283L12.5356 13.4195L9.58333 10.4672V14.6424L10.6939 15.3827C10.9811 15.5742 11.0587 15.9623 10.8673 16.2495C10.6758 16.5367 10.2877 16.6143 10.0005 16.4228L9.58333 16.1447V17.2917C9.58333 17.6368 9.30351 17.9167 8.95833 17.9167C8.61316 17.9167 8.33333 17.6368 8.33333 17.2917V16.1447L7.91613 16.4228C7.62893 16.6143 7.24088 16.5367 7.04941 16.2495C6.85794 15.9623 6.93555 15.5742 7.22276 15.3827L8.33333 14.6424V10.4672L5.381 13.4195L5.64277 14.7283C5.71046 15.0668 5.49095 15.3961 5.15248 15.4638C4.814 15.5314 4.48474 15.3119 4.41704 14.9735L4.31871 14.4818L3.50766 15.2928C3.26359 15.5369 2.86786 15.5369 2.62378 15.2928C2.3797 15.0488 2.3797 14.653 2.62378 14.4089L3.43482 13.5979L2.94315 13.4996C2.60467 13.4319 2.38516 13.1026 2.45286 12.7641C2.52055 12.4257 2.84982 12.2061 3.18829 12.2738L4.49712 12.5356L7.44944 9.58329L3.27431 9.58333L2.53392 10.6939C2.34245 10.9811 1.95441 11.0587 1.6672 10.8673C1.38 10.6758 1.30239 10.2877 1.49386 10.0005L1.77199 9.58333H0.625C0.279822 9.58333 0 9.30351 0 8.95833C0 8.61315 0.279822 8.33333 0.625 8.33333H1.77199L1.49386 7.91613C1.30239 7.62893 1.38 7.24088 1.6672 7.04941C1.95441 6.85794 2.34245 6.93555 2.53392 7.22276L3.2743 8.33333L7.44945 8.33329L4.49718 5.38106L3.18835 5.64283C2.84988 5.71052 2.52061 5.49101 2.45291 5.15254C2.38522 4.81406 2.60473 4.48479 2.9432 4.4171L3.43488 4.31876L2.62384 3.50772C2.37976 3.26364 2.37976 2.86791 2.62384 2.62384C2.86791 2.37976 3.26364 2.37976 3.50772 2.62384L4.31876 3.43488L4.4171 2.9432C4.4848 2.60473 4.81406 2.38522 5.15254 2.45291C5.49101 2.52061 5.71052 2.84987 5.64283 3.18835L5.38106 4.49717L8.33333 7.44941V3.2743L7.22276 2.53392C6.93555 2.34245 6.85794 1.95441 7.04941 1.6672C7.24088 1.38 7.62893 1.30239 7.91613 1.49386L8.33333 1.77199V0.625C8.33333 0.279822 8.61316 0 8.95833 0Z" fill="white"/>
</svg>
