<svg width="41" height="41" viewBox="0 0 41 41" fill="none" xmlns="http://www.w3.org/2000/svg">
<g clip-path="url(#clip0_1103_1058)">
<path d="M36.125 30.1469H37.0062C39.0937 30.1469 40.7937 28.4469 40.7937 26.3594V19.8031C40.7937 17.7156 39.0937 16.0156 37.0062 16.0156H36.125V14.8906C36.125 6.89687 29.6187 0.390625 21.625 0.390625C13.6312 0.390625 7.1187 6.89063 7.1187 14.8844V16.0094H4.8937C2.8062 16.0094 1.1062 17.7094 1.1062 19.7969V26.3531C1.1062 28.4406 2.8062 30.1406 4.8937 30.1406H12.275V16.0094H8.94995V14.8844C8.94995 7.89688 14.6375 2.21563 21.6187 2.21563C28.6 2.21563 34.2875 7.89688 34.2875 14.8844V16.0094H29.6187V30.1469H34.2875V35.3906C34.2875 36.9531 33.0187 38.2219 31.4562 38.2219H23.3312V40.0531H31.4562C34.0312 40.0531 36.125 37.9594 36.125 35.3844V30.1469ZM10.4437 28.3156H4.8937C3.81245 28.3156 2.93745 27.4406 2.93745 26.3594V19.8031C2.93745 18.7219 3.8187 17.8469 4.8937 17.8469H10.4437V28.3156ZM31.45 17.8406H37C38.0812 17.8406 38.9562 18.7219 38.9562 19.7969V26.3531C38.9562 27.4344 38.0812 28.3094 37 28.3094H31.45V17.8406Z" fill="black"/>
</g>
<defs>
<clipPath id="clip0_1103_1058">
<rect width="40" height="40" fill="white" transform="translate(0.824951 0.015625)"/>
</clipPath>
</defs>
</svg>
