<svg width="41" height="41" viewBox="0 0 41 41" fill="none" xmlns="http://www.w3.org/2000/svg">
<path d="M2.26749 38.5379C2.32612 38.6091 2.3998 38.6665 2.48322 38.7058C2.56664 38.7452 2.65774 38.7656 2.74999 38.7656H39C39.0922 38.7656 39.1833 38.7452 39.2668 38.7058C39.3502 38.6664 39.4239 38.6091 39.4825 38.5379C39.5411 38.4667 39.5833 38.3833 39.6059 38.2939C39.6285 38.2045 39.6311 38.1112 39.6133 38.0206L33.9883 9.27062C33.9605 9.12838 33.8841 9.00024 33.7722 8.90812C33.6604 8.81599 33.5199 8.76562 33.375 8.76562H28.375V5.64062C28.3753 4.93122 28.2031 4.23239 27.8731 3.60441C27.5431 2.97643 27.0653 2.43816 26.4809 2.03603C25.8965 1.63391 25.223 1.38 24.5186 1.29623C23.8142 1.21245 23.0999 1.30131 22.4375 1.55515C21.7751 1.30131 21.0608 1.21245 20.3564 1.29623C19.652 1.38 18.9785 1.63391 18.3941 2.03603C17.8096 2.43816 17.3318 2.97643 17.0019 3.60441C16.6719 4.23239 16.4996 4.93122 16.5 5.64062V8.76562H8.37499C8.23006 8.76562 8.08963 8.81599 7.97774 8.90812C7.86585 9.00024 7.78946 9.12838 7.76163 9.27062L2.13663 38.0206C2.11892 38.1112 2.12146 38.2045 2.14409 38.2939C2.16671 38.3834 2.20886 38.4667 2.26749 38.5379ZM10.25 32.7043L16.0237 37.5156H4.47624L10.25 32.7043ZM32.8605 10.0156L38.2409 37.5156H18.2644L12.884 10.0156H19.625V13.7656H18.375V15.0156H22.125V13.7656H20.875V10.0156H27.125V13.7656H25.875V15.0156H29.625V13.7656H28.375V10.0156H32.8605ZM22.4375 2.93601C22.9122 3.21022 23.3065 3.60447 23.5807 4.07918C23.855 4.55389 23.9996 5.09238 24 5.64062V8.76562H20.875V5.64062C20.8754 5.09238 21.02 4.55389 21.2942 4.07918C21.5685 3.60447 21.9628 3.21022 22.4375 2.93601ZM24 2.51562C24.8285 2.51657 25.6228 2.84612 26.2086 3.43196C26.7945 4.01781 27.124 4.81211 27.125 5.64062V8.76562H25.25V5.64062C25.2502 5.05856 25.1339 4.48234 24.908 3.94592C24.682 3.4095 24.351 2.92374 23.9344 2.51726C23.9562 2.51687 23.978 2.51562 24 2.51562ZM17.75 5.64062C17.7509 4.81211 18.0805 4.01781 18.6663 3.43196C19.2522 2.84612 20.0465 2.51657 20.875 2.51562C20.8969 2.51562 20.9187 2.51687 20.9406 2.51726C20.524 2.92374 20.1929 3.4095 19.967 3.94592C19.741 4.48234 19.6248 5.05856 19.625 5.64062V8.76562H17.75V5.64062ZM8.88952 10.0156H9.62499V20.6406H10.875V10.0156H11.6105L16.7989 36.5345L10.875 31.5979V25.0156H9.62499V31.5979L3.70108 36.5345L8.88952 10.0156Z" fill="black"/>
<path d="M9.625 21.8906H10.875V23.1406H9.625V21.8906ZM26.5 24.3906C27.1181 24.3906 27.7223 24.2073 28.2362 23.864C28.7501 23.5206 29.1506 23.0325 29.3871 22.4615C29.6236 21.8905 29.6855 21.2622 29.565 20.656C29.4444 20.0498 29.1467 19.493 28.7097 19.0559C28.2727 18.6189 27.7158 18.3213 27.1097 18.2007C26.5035 18.0801 25.8751 18.142 25.3041 18.3785C24.7331 18.615 24.245 19.0156 23.9017 19.5295C23.5583 20.0434 23.375 20.6476 23.375 21.2656C23.376 22.0941 23.7055 22.8884 24.2913 23.4743C24.8772 24.0601 25.6715 24.3897 26.5 24.3906ZM26.5 19.3906C26.8708 19.3906 27.2334 19.5006 27.5417 19.7066C27.85 19.9126 28.0904 20.2055 28.2323 20.5481C28.3742 20.8907 28.4113 21.2677 28.339 21.6314C28.2666 21.9951 28.088 22.3292 27.8258 22.5915C27.5636 22.8537 27.2295 23.0323 26.8658 23.1046C26.5021 23.1769 26.1251 23.1398 25.7825 22.9979C25.4399 22.856 25.147 22.6157 24.941 22.3073C24.735 21.999 24.625 21.6365 24.625 21.2656C24.6256 20.7685 24.8233 20.2919 25.1748 19.9404C25.5263 19.5889 26.0029 19.3912 26.5 19.3906ZM21.5 26.2656H24.625V27.5156H21.5V26.2656ZM25.875 26.2656H32.125V27.5156H25.875V26.2656ZM20.25 28.7656H27.75V30.0156H20.25V28.7656ZM29 28.7656H34V30.0156H29V28.7656Z" fill="black"/>
</svg>
