<svg width="41" height="41" viewBox="0 0 41 41" fill="none" xmlns="http://www.w3.org/2000/svg">
<path d="M26.2375 28.1406H7.17502C6.34652 28.1396 5.55224 27.8101 4.96641 27.2242C4.38057 26.6384 4.05101 25.8441 4.05002 25.0156V10.0156C4.05101 9.18713 4.38057 8.39285 4.96641 7.80701C5.55224 7.22118 6.34652 6.89162 7.17502 6.89062H30.925C31.7535 6.89162 32.5478 7.22118 33.1336 7.80701C33.7195 8.39285 34.049 9.18713 34.05 10.0156V20.6781C34.05 20.8439 33.9842 21.0029 33.867 21.1201C33.7498 21.2373 33.5908 21.3031 33.425 21.3031C33.2593 21.3031 33.1003 21.2373 32.9831 21.1201C32.8659 21.0029 32.8 20.8439 32.8 20.6781V10.0156C32.8 9.51834 32.6025 9.04143 32.2508 8.6898C31.8992 8.33817 31.4223 8.14062 30.925 8.14062H7.17502C6.67774 8.14062 6.20082 8.33817 5.84919 8.6898C5.49756 9.04143 5.30002 9.51834 5.30002 10.0156V25.0156C5.30002 25.5129 5.49756 25.9898 5.84919 26.3414C6.20082 26.6931 6.67774 26.8906 7.17502 26.8906H26.2375C26.4033 26.8906 26.5623 26.9565 26.6795 27.0737C26.7967 27.1909 26.8625 27.3499 26.8625 27.5156C26.8625 27.6814 26.7967 27.8404 26.6795 27.9576C26.5623 28.0748 26.4033 28.1406 26.2375 28.1406Z" fill="black"/>
<path d="M33.425 17.5156H4.67502C4.50926 17.5156 4.35029 17.4498 4.23308 17.3326C4.11587 17.2154 4.05002 17.0564 4.05002 16.8906V13.1406C4.05002 12.9749 4.11587 12.8159 4.23308 12.6987C4.35029 12.5815 4.50926 12.5156 4.67502 12.5156H33.425C33.5908 12.5156 33.7498 12.5815 33.867 12.6987C33.9842 12.8159 34.05 12.9749 34.05 13.1406V16.8906C34.05 17.0564 33.9842 17.2154 33.867 17.3326C33.7498 17.4498 33.5908 17.5156 33.425 17.5156ZM5.30002 16.2656H32.8V13.7656H5.30002V16.2656ZM25.925 21.2656H23.425C23.2593 21.2656 23.1003 21.1998 22.9831 21.0826C22.8659 20.9654 22.8 20.8064 22.8 20.6406C22.8 20.4749 22.8659 20.3159 22.9831 20.1987C23.1003 20.0815 23.2593 20.0156 23.425 20.0156H25.925C26.0908 20.0156 26.2498 20.0815 26.367 20.1987C26.4842 20.3159 26.55 20.4749 26.55 20.6406C26.55 20.8064 26.4842 20.9654 26.367 21.0826C26.2498 21.1998 26.0908 21.2656 25.925 21.2656ZM20.925 21.2656H18.425C18.2593 21.2656 18.1003 21.1998 17.9831 21.0826C17.8659 20.9654 17.8 20.8064 17.8 20.6406C17.8 20.4749 17.8659 20.3159 17.9831 20.1987C18.1003 20.0815 18.2593 20.0156 18.425 20.0156H20.925C21.0908 20.0156 21.2498 20.0815 21.367 20.1987C21.4842 20.3159 21.55 20.4749 21.55 20.6406C21.55 20.8064 21.4842 20.9654 21.367 21.0826C21.2498 21.1998 21.0908 21.2656 20.925 21.2656ZM15.925 25.0156H8.42502C8.25926 25.0156 8.10029 24.9498 7.98308 24.8326C7.86587 24.7154 7.80002 24.5564 7.80002 24.3906V20.6406C7.80002 20.4749 7.86587 20.3159 7.98308 20.1987C8.10029 20.0815 8.25926 20.0156 8.42502 20.0156H15.925C16.0908 20.0156 16.2498 20.0815 16.367 20.1987C16.4842 20.3159 16.55 20.4749 16.55 20.6406V24.3906C16.55 24.5564 16.4842 24.7154 16.367 24.8326C16.2498 24.9498 16.0908 25.0156 15.925 25.0156ZM9.05002 23.7656H15.3V21.2656H9.05002V23.7656Z" fill="black"/>
<path d="M31.55 33.1399C31.5008 33.1399 31.4517 33.1343 31.4038 33.123C29.6779 32.7005 28.1415 31.716 27.0365 30.3245C25.9315 28.933 25.3206 27.2135 25.3 25.4368V21.2199C25.3 21.0568 25.3637 20.9002 25.4775 20.7834C25.5914 20.6666 25.7464 20.599 25.9094 20.5949C27.7579 20.5134 29.5798 20.1239 31.3 19.4424C31.3789 19.4082 31.464 19.3906 31.55 19.3906C31.636 19.3906 31.7211 19.4082 31.8 19.4424C33.4969 20.181 35.3244 20.5729 37.175 20.5949C37.3408 20.5949 37.4998 20.6608 37.617 20.778C37.7342 20.8952 37.8 21.0541 37.8 21.2199V25.4368C37.7797 27.2138 37.169 28.9335 36.0639 30.3253C34.9589 31.717 33.4224 32.7017 31.6963 33.1243C31.6483 33.1351 31.5992 33.1403 31.55 33.1399ZM26.55 21.8099V25.4349C26.5687 26.9056 27.0672 28.33 27.9697 29.4913C28.8723 30.6527 30.1295 31.4875 31.55 31.8687C32.9706 31.4875 34.2278 30.6527 35.1303 29.4913C36.0329 28.33 36.5314 26.9056 36.55 25.4349V21.8274C34.8316 21.733 33.1413 21.35 31.55 20.6943C29.9472 21.3097 28.2624 21.6856 26.55 21.8099Z" fill="black"/>
<path d="M30.925 28.1408C30.8016 28.1408 30.6808 28.1042 30.5781 28.0358L28.7031 26.7858C28.5652 26.6938 28.4695 26.5507 28.437 26.3882C28.4046 26.2256 28.438 26.0568 28.53 25.9189C28.622 25.781 28.765 25.6853 28.9276 25.6528C29.0902 25.6203 29.259 25.6538 29.3969 25.7458L30.8456 26.7114L33.9206 23.6364C34.0385 23.5225 34.1964 23.4595 34.3603 23.461C34.5241 23.4624 34.6809 23.5281 34.7968 23.644C34.9127 23.7599 34.9784 23.9166 34.9798 24.0805C34.9812 24.2444 34.9182 24.4023 34.8044 24.5201L31.3669 27.9576C31.2497 28.0749 31.0908 28.1407 30.925 28.1408Z" fill="black"/>
</svg>
