<svg width="485" height="485" viewBox="0 0 485 485" fill="none" xmlns="http://www.w3.org/2000/svg">
<path d="M165.565 484.577C61.0873 484.577 114.483 485.388 90.2235 484.764C35.4524 483.392 2.50227 446.532 1.18925 391.959C-0.0612332 340.879 0.313952 289.674 0.00133234 238.593C-0.123697 215.143 8.5671 195.185 24.8859 178.782C75.2177 128.2 125.362 77.4319 176.444 27.6614C214.584 -9.44821 266.104 -9.13637 304.056 28.098C356.076 79.1782 407.596 130.757 458.615 182.773C493.254 218.012 493.941 269.903 459.428 305.516C408.659 357.843 356.701 408.986 304.931 460.253C288.05 476.968 267.042 484.764 243.157 484.639C217.272 484.515 191.387 484.639 165.565 484.639C165.565 483.953 165.565 485.325 165.565 484.639L165.565 484.577Z" fill="#9F363D" fill-opacity="0.47"/>
</svg>
